<?xml version="1.0" encoding="utf-8"?>
<!-- Generator: Adobe Illustrator 23.0.1, SVG Export Plug-In . SVG Version: 6.00 Build 0)  -->
<svg version="1.1" id="Warstwa_1" xmlns="http://www.w3.org/2000/svg" xmlns:xlink="http://www.w3.org/1999/xlink" x="0px" y="0px"
	 viewBox="0 0 498.76 104.37" style="enable-background:new 0 0 498.76 104.37;" xml:space="preserve">
<style type="text/css">
	.st0{clip-path:url(#SVGID_2_);}
	.st1{clip-path:url(#SVGID_4_);}
</style>
<g>
	<g>
		<defs>
			<rect id="SVGID_1_" width="222.33" height="54.71"/>
		</defs>
		<clipPath id="SVGID_2_">
			<use xlink:href="#SVGID_1_"  style="overflow:visible;"/>
		</clipPath>
		<path class="st0" d="M195.8,67.8c4.84-2.35,8.56-5.59,11.17-9.73c2.6-4.14,3.9-9,3.9-14.57c0-5.79-1.39-10.84-4.18-15.13
			c-2.79-4.29-6.75-7.59-11.88-9.9c-5.13-2.31-11.18-3.46-18.15-3.46h-31.14h-4.06H76.55v6.49c-1.6-1.15-3.36-2.16-5.29-3.03
			C66.13,16.15,60.08,15,53.11,15h-35.2v77h21.78V71.87h13.42c6.97,0,13.02-1.16,18.15-3.47c5.13-2.31,9.09-5.59,11.88-9.84
			c2.79-4.25,4.18-9.28,4.18-15.07c0-4.12-0.72-7.86-2.13-11.22h15.01V92h21.78V32.27h19.48V92h21.78V71.54h11.88L189.09,92h23.32
			L195.8,67.8z M61.91,51.79c-2.27,1.94-5.65,2.92-10.12,2.92h-12.1V32.16h12.1c4.47,0,7.85,0.99,10.12,2.97
			c2.27,1.98,3.41,4.77,3.41,8.36C65.32,47.08,64.18,49.85,61.91,51.79z M185.46,51.79c-2.27,1.94-5.65,2.92-10.12,2.92h-12.1V32.16
			h12.1c4.47,0,7.85,0.99,10.12,2.97c2.27,1.98,3.41,4.77,3.41,8.36C188.87,47.08,187.74,49.85,185.46,51.79z"/>
	</g>
	<g>
		<defs>
			<rect id="SVGID_3_" x="-12" y="53.71" width="262" height="65.96"/>
		</defs>
		<clipPath id="SVGID_4_">
			<use xlink:href="#SVGID_3_"  style="overflow:visible;"/>
		</clipPath>
		<path class="st1" d="M188.8,66.8c4.84-2.35,8.56-5.59,11.17-9.73c2.6-4.14,3.9-9,3.9-14.57c0-5.79-1.39-10.84-4.18-15.13
			c-2.79-4.29-6.75-7.59-11.88-9.9c-5.13-2.31-11.18-3.46-18.15-3.46h-31.14h-4.06H69.55v6.49c-1.6-1.15-3.36-2.16-5.29-3.03
			C59.13,15.15,53.08,14,46.11,14h-35.2v77h21.78V70.87h13.42c6.97,0,13.02-1.16,18.15-3.47c5.13-2.31,9.09-5.59,11.88-9.84
			c2.79-4.25,4.18-9.28,4.18-15.07c0-4.12-0.72-7.86-2.13-11.22H93.2V91h21.78V31.27h19.48V91h21.78V70.54h11.88L182.09,91h23.32
			L188.8,66.8z M54.91,50.79c-2.27,1.94-5.65,2.92-10.12,2.92h-12.1V31.16h12.1c4.47,0,7.85,0.99,10.12,2.97
			c2.27,1.98,3.41,4.77,3.41,8.36C58.32,46.08,57.18,48.85,54.91,50.79z M178.46,50.79c-2.27,1.94-5.65,2.92-10.12,2.92h-12.1V31.16
			h12.1c4.47,0,7.85,0.99,10.12,2.97c2.27,1.98,3.41,4.77,3.41,8.36C181.87,46.08,180.74,48.85,178.46,50.79z"/>
	</g>
	<g>
		<path d="M257.04,35.89h-12.93l-2.55,6.08h-4.95l11.64-26.25h4.73l11.67,26.25h-5.02L257.04,35.89z M255.46,32.07l-4.88-11.48
			l-4.84,11.48H255.46z"/>
		<path d="M286.9,21.94v16.99c0,7.05-3.55,10.58-10.64,10.58c-1.9,0-3.69-0.24-5.39-0.73c-1.7-0.49-3.1-1.19-4.21-2.12l2.07-3.53
			c0.86,0.73,1.95,1.31,3.27,1.74c1.32,0.44,2.65,0.66,4.01,0.66c2.17,0,3.76-0.5,4.77-1.5c1.01-1,1.51-2.52,1.51-4.58v-1.05
			c-0.79,0.88-1.75,1.54-2.88,1.99s-2.38,0.68-3.73,0.68c-1.87,0-3.57-0.41-5.08-1.22c-1.51-0.81-2.71-1.96-3.58-3.43
			c-0.87-1.47-1.31-3.16-1.31-5.06c0-1.9,0.44-3.58,1.31-5.04c0.87-1.46,2.07-2.59,3.58-3.39c1.51-0.8,3.21-1.2,5.08-1.2
			c1.43,0,2.73,0.24,3.9,0.71c1.17,0.48,2.15,1.2,2.94,2.18v-2.66H286.9z M280.67,35.5c1.12-1.06,1.68-2.44,1.68-4.14
			c0-1.67-0.56-3.04-1.68-4.09c-1.12-1.05-2.56-1.58-4.3-1.58c-1.77,0-3.22,0.52-4.34,1.58c-1.12,1.05-1.68,2.41-1.68,4.09
			c0,1.7,0.56,3.08,1.68,4.14c1.12,1.06,2.57,1.59,4.34,1.59C278.12,37.09,279.55,36.56,280.67,35.5z"/>
		<path d="M311.43,33.45h-15.48c0.27,1.48,0.98,2.64,2.12,3.51c1.15,0.86,2.57,1.29,4.27,1.29c2.17,0,3.95-0.73,5.36-2.18l2.48,2.89
			c-0.89,1.08-2.01,1.89-3.36,2.44c-1.35,0.55-2.88,0.83-4.58,0.83c-2.17,0-4.08-0.44-5.73-1.31c-1.65-0.87-2.93-2.09-3.82-3.66
			c-0.9-1.56-1.35-3.33-1.35-5.31c0-1.95,0.44-3.71,1.31-5.27c0.87-1.56,2.09-2.78,3.64-3.66c1.55-0.88,3.3-1.31,5.25-1.31
			c1.92,0,3.64,0.43,5.15,1.29c1.51,0.86,2.7,2.08,3.55,3.64c0.85,1.56,1.27,3.37,1.27,5.42C311.5,32.39,311.48,32.85,311.43,33.45z
			 M297.78,26.8c-1.02,0.89-1.64,2.07-1.87,3.54h11.19c-0.2-1.45-0.8-2.63-1.81-3.53c-1.01-0.9-2.27-1.35-3.77-1.35
			C300.05,25.47,298.8,25.91,297.78,26.8z"/>
		<path d="M333.12,23.93c1.5,1.48,2.25,3.66,2.25,6.56v11.48h-4.62V31.09c0-1.75-0.41-3.07-1.22-3.96
			c-0.81-0.89-1.97-1.33-3.47-1.33c-1.7,0-3.04,0.52-4.03,1.56c-0.99,1.04-1.48,2.53-1.48,4.48v10.13h-4.62V21.94h4.4v2.59
			c0.76-0.92,1.72-1.63,2.88-2.1c1.16-0.47,2.46-0.71,3.92-0.71C329.62,21.72,331.61,22.45,333.12,23.93z"/>
		<path d="M344.98,40.92c-1.63-0.87-2.89-2.09-3.81-3.66c-0.91-1.56-1.37-3.33-1.37-5.31c0-1.97,0.46-3.74,1.37-5.29
			c0.91-1.55,2.17-2.76,3.79-3.64c1.61-0.88,3.45-1.31,5.52-1.31c1.95,0,3.65,0.4,5.12,1.2c1.46,0.8,2.57,1.95,3.31,3.45l-3.55,2.1
			c-0.57-0.92-1.27-1.62-2.12-2.08c-0.85-0.46-1.78-0.69-2.79-0.69c-1.72,0-3.15,0.57-4.29,1.71c-1.13,1.14-1.7,2.66-1.7,4.56
			c0,1.9,0.56,3.42,1.68,4.56c1.12,1.14,2.56,1.71,4.3,1.71c1.01,0,1.94-0.23,2.79-0.69c0.85-0.46,1.56-1.16,2.12-2.08l3.55,2.1
			c-0.76,1.5-1.88,2.66-3.34,3.47c-1.47,0.81-3.16,1.22-5.08,1.22C348.44,42.23,346.6,41.79,344.98,40.92z"/>
		<path d="M356.43,48.34l1.33-3.49c0.69,0.53,1.59,0.79,2.7,0.79c0.86,0,1.52-0.27,1.98-0.81c0.46-0.54,0.68-1.33,0.68-2.38V21.94
			h4.62v20.4c0,2.23-0.6,3.98-1.81,5.25c-1.21,1.28-2.89,1.91-5.06,1.91C358.92,49.51,357.44,49.12,356.43,48.34z M363.3,17.83
			c-0.57-0.54-0.85-1.21-0.85-2.01c0-0.8,0.28-1.47,0.85-2.01c0.57-0.54,1.27-0.81,2.11-0.81c0.84,0,1.54,0.26,2.11,0.77
			c0.57,0.51,0.85,1.16,0.85,1.93c0,0.83-0.28,1.52-0.83,2.08s-1.26,0.84-2.12,0.84C364.57,18.64,363.87,18.37,363.3,17.83z"/>
		<path d="M388,23.84c1.54,1.41,2.31,3.54,2.31,6.39v11.74h-4.36v-2.44c-0.57,0.88-1.37,1.54-2.42,2.01
			c-1.05,0.46-2.31,0.69-3.79,0.69s-2.77-0.26-3.88-0.77s-1.96-1.22-2.57-2.14c-0.6-0.91-0.91-1.94-0.91-3.09
			c0-1.8,0.66-3.24,1.98-4.33c1.32-1.09,3.39-1.63,6.23-1.63h5.1v-0.3c0-1.4-0.41-2.48-1.24-3.23s-2.05-1.13-3.68-1.13
			c-1.11,0-2.2,0.18-3.27,0.53s-1.98,0.84-2.72,1.46l-1.81-3.41c1.03-0.8,2.28-1.41,3.73-1.84c1.45-0.42,2.99-0.64,4.62-0.64
			C384.24,21.72,386.46,22.42,388,23.84z M383.79,38.01c0.9-0.54,1.53-1.31,1.9-2.31v-2.33h-4.77c-2.66,0-3.99,0.89-3.99,2.66
			c0,0.85,0.33,1.53,1,2.03c0.67,0.5,1.59,0.75,2.77,0.75C381.86,38.82,382.89,38.55,383.79,38.01z"/>
		<path d="M240.27,64.41h4.8v26.25h-4.8V64.41z"/>
		<path d="M268.79,72.62c1.5,1.48,2.25,3.66,2.25,6.56v11.48h-4.62V79.78c0-1.75-0.41-3.07-1.22-3.96
			c-0.81-0.89-1.97-1.33-3.47-1.33c-1.7,0-3.04,0.52-4.03,1.56c-0.99,1.04-1.48,2.53-1.48,4.48v10.13h-4.62V70.63h4.4v2.59
			c0.76-0.92,1.72-1.63,2.88-2.1c1.16-0.47,2.46-0.71,3.92-0.71C265.3,70.41,267.29,71.14,268.79,72.62z"/>
		<path d="M288.78,89.57c-0.54,0.45-1.2,0.79-1.98,1.01c-0.78,0.23-1.59,0.34-2.46,0.34c-2.17,0-3.84-0.58-5.02-1.73
			c-1.18-1.15-1.77-2.82-1.77-5.03v-9.64h-3.25v-3.75h3.25v-4.58h4.62v4.58h5.28v3.75h-5.28v9.53c0,0.98,0.23,1.72,0.7,2.23
			c0.47,0.51,1.15,0.77,2.03,0.77c1.03,0,1.9-0.27,2.59-0.82L288.78,89.57z"/>
		<path d="M310.39,82.15h-15.48c0.27,1.48,0.98,2.64,2.12,3.51c1.15,0.86,2.57,1.29,4.27,1.29c2.17,0,3.95-0.73,5.36-2.18l2.48,2.89
			c-0.89,1.08-2.01,1.89-3.36,2.44c-1.35,0.55-2.88,0.83-4.58,0.83c-2.17,0-4.08-0.44-5.73-1.31c-1.65-0.87-2.93-2.09-3.82-3.66
			c-0.9-1.56-1.35-3.33-1.35-5.31c0-1.95,0.44-3.71,1.31-5.27c0.87-1.56,2.09-2.78,3.64-3.66c1.55-0.88,3.3-1.31,5.25-1.31
			c1.92,0,3.64,0.43,5.15,1.29c1.51,0.86,2.7,2.08,3.55,3.64c0.85,1.56,1.27,3.37,1.27,5.42C310.47,81.08,310.44,81.55,310.39,82.15
			z M296.74,75.49c-1.02,0.89-1.64,2.07-1.87,3.54h11.19c-0.2-1.45-0.8-2.63-1.81-3.53c-1.01-0.9-2.27-1.35-3.77-1.35
			C299.02,74.16,297.76,74.6,296.74,75.49z"/>
		<path d="M326.32,70.41v4.46c-0.39-0.08-0.75-0.11-1.07-0.11c-1.8,0-3.2,0.53-4.21,1.59c-1.01,1.06-1.51,2.59-1.51,4.59v9.71h-4.62
			V70.63h4.4v2.93C320.63,71.46,322.97,70.41,326.32,70.41z"/>
		<path d="M344.33,72.53c1.54,1.41,2.31,3.54,2.31,6.39v11.74h-4.36v-2.44c-0.57,0.88-1.37,1.54-2.42,2.01
			c-1.05,0.46-2.31,0.69-3.79,0.69s-2.77-0.26-3.88-0.77s-1.96-1.22-2.57-2.14c-0.6-0.91-0.91-1.94-0.91-3.09
			c0-1.8,0.66-3.24,1.98-4.33c1.32-1.09,3.39-1.63,6.23-1.63h5.1v-0.3c0-1.4-0.41-2.48-1.24-3.23s-2.05-1.13-3.68-1.13
			c-1.11,0-2.2,0.18-3.27,0.53s-1.98,0.84-2.72,1.46l-1.81-3.41c1.03-0.8,2.28-1.41,3.73-1.84c1.45-0.42,2.99-0.64,4.62-0.64
			C340.57,70.41,342.79,71.11,344.33,72.53z M340.12,86.7c0.9-0.54,1.53-1.31,1.9-2.31v-2.33h-4.77c-2.66,0-3.99,0.89-3.99,2.66
			c0,0.85,0.33,1.53,1,2.03c0.67,0.5,1.59,0.75,2.77,0.75C338.19,87.51,339.22,87.24,340.12,86.7z"/>
		<path d="M360.6,82.07l-3.44,3.3v5.29h-4.62V62.83h4.62v16.8l9.57-9h5.54l-8.24,8.4l9.01,11.63h-5.62L360.6,82.07z"/>
		<path d="M387.91,89.57c-0.54,0.45-1.2,0.79-1.98,1.01c-0.78,0.23-1.59,0.34-2.46,0.34c-2.17,0-3.84-0.58-5.02-1.73
			c-1.18-1.15-1.77-2.82-1.77-5.03v-9.64h-3.25v-3.75h3.25v-4.58h4.62v4.58h5.28v3.75h-5.28v9.53c0,0.98,0.23,1.72,0.7,2.23
			c0.47,0.51,1.15,0.77,2.03,0.77c1.03,0,1.9-0.27,2.59-0.82L387.91,89.57z"/>
		<path d="M409.82,70.63l-9.24,21.64c-0.86,2.18-1.91,3.71-3.14,4.59c-1.23,0.89-2.72,1.33-4.47,1.33c-0.99,0-1.96-0.16-2.92-0.49
			c-0.96-0.33-1.75-0.78-2.36-1.35l1.85-3.45c0.44,0.42,0.97,0.76,1.57,1.01c0.6,0.25,1.21,0.38,1.83,0.38
			c0.81,0,1.48-0.21,2.01-0.64c0.53-0.43,1.02-1.14,1.46-2.14l0.33-0.79l-8.61-20.1h4.8l6.21,14.81l6.24-14.81H409.82z"/>
		<path d="M443.11,70.63l-7.28,20.03h-4.43l-5.1-13.8l-5.17,13.8h-4.43l-7.24-20.03h4.36l5.21,14.78l5.43-14.78h3.88l5.32,14.85
			L439,70.63H443.11z"/>
		<path d="M463.46,72.62c1.5,1.48,2.25,3.66,2.25,6.56v11.48h-4.62V79.78c0-1.75-0.41-3.07-1.22-3.96
			c-0.81-0.89-1.97-1.33-3.47-1.33c-1.7,0-3.04,0.52-4.03,1.56c-0.99,1.04-1.48,2.53-1.48,4.48v10.13h-4.62V70.63h4.4v2.59
			c0.76-0.92,1.72-1.63,2.88-2.1c1.16-0.47,2.46-0.71,3.92-0.71C459.96,70.41,461.96,71.14,463.46,72.62z"/>
		<path d="M485.8,72.53c1.54,1.41,2.31,3.54,2.31,6.39v11.74h-4.36v-2.44c-0.57,0.88-1.37,1.54-2.42,2.01s-2.31,0.69-3.79,0.69
			s-2.77-0.26-3.88-0.77s-1.96-1.22-2.57-2.14c-0.6-0.91-0.91-1.94-0.91-3.09c0-1.8,0.66-3.24,1.98-4.33
			c1.32-1.09,3.39-1.63,6.23-1.63h5.1v-0.3c0-1.4-0.41-2.48-1.24-3.23s-2.05-1.13-3.68-1.13c-1.11,0-2.2,0.18-3.27,0.53
			s-1.98,0.84-2.72,1.46l-1.81-3.41c1.03-0.8,2.28-1.41,3.73-1.84c1.45-0.42,2.99-0.64,4.62-0.64
			C482.03,70.41,484.26,71.11,485.8,72.53z M481.58,86.7c0.9-0.54,1.53-1.31,1.9-2.31v-2.33h-4.77c-2.66,0-3.99,0.89-3.99,2.66
			c0,0.85,0.33,1.53,1,2.03c0.67,0.5,1.59,0.75,2.77,0.75C479.66,87.51,480.68,87.24,481.58,86.7z"/>
	</g>
</g>
</svg>
